<?xml version="1.0" standalone="no"?>
<!DOCTYPE svg PUBLIC "-//W3C//DTD SVG 20010904//EN"
 "http://www.w3.org/TR/2001/REC-SVG-20010904/DTD/svg10.dtd">
<svg version="1.0" xmlns="http://www.w3.org/2000/svg"
 width="2000.000000pt" height="2000.000000pt" viewBox="0 0 2000.000000 2000.000000"
 preserveAspectRatio="xMidYMid meet">
<metadata>
Created by potrace 1.11, written by Peter Selinger 2001-2013
</metadata>
<g transform="translate(0.000000,2000.000000) scale(0.100000,-0.100000)"
fill="#000000" stroke="none">
<path d="M9659 19496 c-2 -2 -71 -7 -154 -10 -195 -9 -358 -21 -430 -31 -16
-2 -55 -7 -85 -10 -108 -10 -174 -17 -190 -20 -9 -2 -41 -6 -71 -10 -30 -3
-124 -17 -209 -31 -203 -32 -202 -32 -295 -50 -111 -21 -127 -24 -150 -28 -11
-2 -31 -7 -45 -10 -126 -29 -218 -50 -290 -68 -47 -11 -93 -22 -103 -24 -10
-2 -100 -26 -200 -54 -363 -103 -613 -188 -981 -335 -198 -79 -249 -100 -396
-167 -358 -164 -830 -420 -1135 -616 -228 -146 -671 -455 -705 -492 -3 -3 -23
-18 -45 -35 -22 -16 -42 -32 -45 -35 -3 -3 -36 -30 -75 -60 -91 -72 -345 -289
-465 -398 -128 -117 -506 -495 -610 -611 -123 -136 -123 -136 -149 -167 -14
-16 -46 -54 -71 -84 -26 -30 -56 -66 -66 -79 -11 -13 -24 -28 -30 -35 -5 -6
-56 -69 -113 -141 -56 -71 -108 -137 -114 -145 -85 -104 -440 -618 -477 -690
-7 -14 -16 -27 -19 -30 -6 -5 -90 -142 -129 -210 -11 -19 -55 -96 -97 -170
-288 -503 -588 -1191 -760 -1740 -15 -47 -33 -103 -40 -125 -15 -44 -84 -283
-90 -312 -2 -10 -19 -79 -39 -153 -19 -74 -37 -146 -39 -160 -3 -14 -10 -43
-15 -65 -6 -22 -13 -53 -16 -70 -2 -16 -12 -64 -21 -105 -9 -41 -19 -86 -21
-100 -2 -14 -9 -47 -15 -75 -5 -27 -12 -66 -15 -85 -3 -19 -11 -71 -19 -115
-8 -44 -22 -134 -31 -200 -21 -159 -21 -156 -34 -276 -12 -106 -14 -132 -25
-254 -3 -38 -8 -92 -10 -120 -27 -308 -27 -1074 0 -1387 22 -250 25 -291 30
-328 2 -19 7 -60 10 -90 7 -68 12 -105 25 -200 6 -41 13 -93 16 -115 3 -22 9
-62 14 -90 5 -27 12 -66 14 -85 7 -46 12 -71 41 -220 31 -160 75 -358 120
-535 20 -77 38 -147 40 -155 76 -303 240 -775 406 -1171 150 -358 315 -692
511 -1034 104 -182 102 -179 108 -185 3 -3 14 -21 24 -40 66 -118 348 -536
489 -725 79 -105 230 -299 237 -305 3 -3 39 -45 79 -95 68 -83 114 -137 245
-284 103 -116 137 -151 351 -366 227 -227 242 -241 410 -391 326 -290 719
-591 1095 -839 158 -103 327 -209 377 -234 16 -8 46 -26 68 -40 22 -14 49 -30
60 -36 11 -6 70 -39 131 -73 125 -69 438 -228 559 -284 183 -84 468 -208 480
-208 4 0 21 -6 38 -14 140 -64 751 -272 881 -301 10 -3 58 -15 105 -29 132
-38 484 -122 591 -142 14 -3 57 -11 97 -19 39 -8 89 -17 110 -21 64 -9 82 -12
101 -18 19 -5 39 -9 237 -36 158 -23 189 -27 260 -35 28 -3 73 -8 100 -11 55
-6 74 -8 185 -18 284 -25 407 -30 805 -30 336 -1 572 5 730 19 192 17 261 24
375 37 52 5 109 12 125 13 40 5 373 54 405 60 14 3 39 8 55 10 105 18 359 71
464 96 68 16 133 31 145 34 54 11 150 36 251 65 61 17 117 33 126 35 89 19
524 166 749 252 542 208 1186 528 1606 799 46 30 86 54 88 54 4 0 264 173 350
234 207 144 616 463 769 600 34 30 73 64 87 76 152 130 568 539 715 704 44 49
91 101 105 116 14 15 44 50 66 76 23 27 50 59 60 71 20 22 22 25 94 113 25 30
48 57 51 60 16 14 251 325 344 455 201 280 410 611 568 895 13 25 46 83 72
130 65 119 233 462 311 638 146 327 291 716 394 1052 17 58 41 134 51 169 24
77 136 518 143 565 3 18 8 39 10 47 3 8 8 25 10 39 3 14 7 36 10 50 3 13 8 42
12 64 3 22 7 43 9 47 3 5 16 74 29 154 2 11 6 36 10 55 10 58 16 93 22 140 3
25 7 52 9 60 2 8 7 38 10 65 3 28 8 59 10 70 2 11 7 47 10 80 4 33 8 72 11 88
4 28 12 98 19 177 8 100 17 197 21 240 25 281 25 1210 0 1370 -2 14 -7 66 -10
116 -4 50 -8 109 -11 130 -2 22 -7 64 -10 94 -10 115 -46 389 -59 456 -2 12
-7 45 -11 75 -4 30 -8 56 -10 59 -2 3 -6 26 -10 50 -10 72 -64 336 -90 445 -9
39 -23 97 -30 130 -7 33 -25 105 -40 160 -15 55 -28 107 -30 115 -15 65 -114
388 -163 530 -156 458 -308 820 -518 1235 -129 254 -194 374 -311 569 -46 76
-83 143 -83 148 0 4 -4 8 -9 8 -5 0 -12 9 -16 19 -6 20 -273 424 -323 489 -16
20 -67 89 -113 152 -46 63 -91 124 -101 135 -9 11 -53 67 -99 125 -77 98 -279
339 -324 386 -11 12 -51 57 -90 100 -69 79 -451 463 -555 560 -367 341 -853
721 -1260 986 -97 63 -305 194 -320 201 -8 4 -28 15 -45 26 -416 255 -1049
555 -1575 746 -333 121 -832 272 -1027 311 -12 2 -69 15 -125 28 -118 28 -286
63 -339 70 -20 3 -42 7 -50 10 -8 3 -32 7 -54 10 -22 2 -47 7 -55 10 -8 3 -33
8 -55 11 -126 18 -325 46 -355 50 -19 2 -57 7 -85 10 -27 4 -69 8 -91 10 -40
3 -130 12 -204 20 -19 2 -79 7 -133 10 -54 4 -119 9 -145 11 -57 6 -878 15
-883 10z"/>
</g>
</svg>
